PathFileType	4	(X/Y/Z)	 static.trc
DataRate	CameraRate	NumFrames	NumMarkers	Units	OrigDataRate	OrigDataStartFrame	OrigNumFrames
200	200	7	43	m	200	1	76
Frame#	Time	C7			LSH			RSH			MAN			RASI			LASI			HIPR			HIPL			RPSI			LPSI			COX			RTHI1			RTHI2			RTHI3			RTHI4			RLKN			RMKN			RSHA1			RSHA2			RSHA3			RSHA4			RLMAL			RMMAL			RHEEL			RMET5			RMET1			RTOE			LTHI1			LTHI2			LTHI3			LTHI4			LLKN			LMKN			LSHA1			LSHA2			LSHA3			LSHA4			LLMAL			LMMAL			LHEEL			LMET5			LMET1			LTOE			
		X1	Y1	Z1	X2	Y2	Z2	X3	Y3	Z3	X4	Y4	Z4	X5	Y5	Z5	X6	Y6	Z6	X7	Y7	Z7	X8	Y8	Z8	X9	Y9	Z9	X10	Y10	Z10	X11	Y11	Z11	X12	Y12	Z12	X13	Y13	Z13	X14	Y14	Z14	X15	Y15	Z15	X16	Y16	Z16	X17	Y17	Z17	X18	Y18	Z18	X19	Y19	Z19	X20	Y20	Z20	X21	Y21	Z21	X22	Y22	Z22	X23	Y23	Z23	X24	Y24	Z24	X25	Y25	Z25	X26	Y26	Z26	X27	Y27	Z27	X28	Y28	Z28	X29	Y29	Z29	X30	Y30	Z30	X31	Y31	Z31	X32	Y32	Z32	X33	Y33	Z33	X34	Y34	Z34	X35	Y35	Z35	X36	Y36	Z36	X37	Y37	Z37	X38	Y38	Z38	X39	Y39	Z39	X40	Y40	Z40	X41	Y41	Z41	X42	Y42	Z42	X43	Y43	Z43	
1	0.0050	-0.361213	1.352906	-0.544207	-0.290501	1.321086	-0.702078	-0.286518	1.306334	-0.386738	-0.247884	1.275400	-0.545704	-0.238485	0.855145	-0.435299	-0.257497	0.861773	-0.666829	-0.301817	0.925208	-0.400535	-0.331328	0.905804	-0.693780	-0.407245	0.897068	-0.485510	-0.417769	0.892113	-0.567735	-0.415557	0.894811	-0.531115	-0.349543	0.689348	-0.355147	-0.336277	0.630838	-0.352232	-0.272737	0.641102	-0.353598	-0.277719	0.702507	-0.356974	-0.328573	0.447312	-0.363929	-0.337582	0.419008	-0.495443	-0.387953	0.311213	-0.334494	-0.389158	0.269687	-0.344461	-0.328733	0.271717	-0.340430	-0.331893	0.311190	-0.334765	-0.338452	0.067932	-0.357861	-0.329533	0.079191	-0.440262	-0.394932	0.038400	-0.393946	-0.231875	0.033466	-0.339971	-0.200162	0.044200	-0.414850	-0.175601	0.035534	-0.413053	-0.373221	0.681768	-0.723028	-0.355552	0.622734	-0.726504	-0.292382	0.635775	-0.733177	-0.302677	0.695109	-0.731486	-0.349156	0.433744	-0.716881	-0.329012	0.417714	-0.591392	-0.409987	0.266891	-0.728692	-0.409056	0.226857	-0.721148	-0.349234	0.231396	-0.732343	-0.357866	0.273980	-0.739977	-0.351730	0.068069	-0.719698	-0.336817	0.086493	-0.639693	-0.406110	0.035832	-0.670486	-0.260241	0.033779	-0.745896	-0.216608	0.047579	-0.678671	-0.188367	0.035975	-0.679469	
2	0.0100	-0.361184	1.352933	-0.544324	-0.290412	1.321104	-0.702182	-0.286400	1.306310	-0.386837	-0.247767	1.275427	-0.545828	-0.238500	0.855114	-0.435506	-0.257611	0.861755	-0.666886	-0.301864	0.925191	-0.400612	-0.331424	0.905812	-0.693806	-0.407341	0.897123	-0.485547	-0.417895	0.892202	-0.567795	-0.415661	0.894854	-0.531127	-0.349633	0.689355	-0.355180	-0.336365	0.630828	-0.352289	-0.272829	0.641096	-0.353630	-0.277808	0.702539	-0.357026	-0.328639	0.447311	-0.363949	-0.337629	0.419028	-0.495464	-0.388025	0.311221	-0.334526	-0.389185	0.269739	-0.344379	-0.328768	0.271712	-0.340437	-0.331923	0.311199	-0.334783	-0.338468	0.067933	-0.357867	-0.329537	0.079223	-0.440250	-0.394950	0.038490	-0.394046	-0.231890	0.033473	-0.339963	-0.200176	0.044203	-0.414851	-0.175616	0.035539	-0.413048	-0.373357	0.681721	-0.723003	-0.355676	0.622714	-0.726524	-0.292505	0.635765	-0.733210	-0.302797	0.695109	-0.731510	-0.349232	0.433741	-0.716918	-0.329109	0.417734	-0.591407	-0.410047	0.266880	-0.728706	-0.409086	0.226877	-0.721184	-0.349261	0.231380	-0.732341	-0.357894	0.273982	-0.739989	-0.351663	0.067964	-0.719695	-0.336764	0.086497	-0.639731	-0.406124	0.035846	-0.670492	-0.260235	0.033770	-0.745904	-0.216618	0.047578	-0.678675	-0.188381	0.035992	-0.679476	
3	0.0150	-0.361118	1.352933	-0.544384	-0.290335	1.321128	-0.702279	-0.286291	1.306304	-0.386936	-0.247714	1.275432	-0.545936	-0.238040	0.855002	-0.436445	-0.257711	0.861733	-0.666920	-0.301901	0.925273	-0.400703	-0.331549	0.905780	-0.693804	-0.407419	0.897171	-0.485553	-0.417993	0.892242	-0.567817	-0.415772	0.894912	-0.531167	-0.349705	0.689349	-0.355219	-0.336461	0.630817	-0.352305	-0.272919	0.641124	-0.353657	-0.277906	0.702548	-0.357062	-0.328665	0.447320	-0.363967	-0.337674	0.419019	-0.495476	-0.388064	0.311215	-0.334541	-0.389223	0.269746	-0.344390	-0.328774	0.271719	-0.340459	-0.331968	0.311197	-0.334788	-0.338462	0.067936	-0.357855	-0.329559	0.079227	-0.440246	-0.394953	0.038492	-0.394029	-0.231903	0.033466	-0.339970	-0.200182	0.044203	-0.414841	-0.175614	0.035501	-0.413027	-0.373475	0.681800	-0.723061	-0.355800	0.622701	-0.726538	-0.292620	0.635773	-0.733220	-0.302906	0.695119	-0.731540	-0.349297	0.433727	-0.716940	-0.329228	0.417716	-0.591418	-0.410065	0.266881	-0.728751	-0.409112	0.226849	-0.721172	-0.349292	0.231388	-0.732345	-0.357920	0.273968	-0.739992	-0.351649	0.067969	-0.719725	-0.336748	0.086513	-0.639738	-0.406123	0.035854	-0.670494	-0.260237	0.033777	-0.745910	-0.216621	0.047574	-0.678700	-0.188387	0.035993	-0.679486	
4	0.0200	-0.361131	1.352958	-0.544520	-0.290026	1.321350	-0.702298	-0.286279	1.306206	-0.387020	-0.247688	1.275428	-0.546031	-0.238125	0.855014	-0.436623	-0.257827	0.861722	-0.666963	-0.302116	0.925173	-0.400742	-0.331807	0.905961	-0.693807	-0.407534	0.896947	-0.485126	-0.418097	0.892278	-0.567843	-0.415870	0.894982	-0.531209	-0.349915	0.689242	-0.355100	-0.336531	0.630756	-0.352397	-0.273051	0.641187	-0.353786	-0.277941	0.702481	-0.357263	-0.328729	0.447304	-0.363991	-0.337737	0.418997	-0.495498	-0.388100	0.311306	-0.334250	-0.389252	0.269715	-0.344424	-0.328832	0.271724	-0.340472	-0.331986	0.311081	-0.334775	-0.338499	0.067891	-0.357710	-0.329512	0.079032	-0.440333	-0.394956	0.038477	-0.394027	-0.231894	0.033468	-0.339967	-0.200193	0.044214	-0.414846	-0.175633	0.035556	-0.413041	-0.373658	0.681669	-0.723102	-0.355905	0.622694	-0.726577	-0.292700	0.635778	-0.733318	-0.302948	0.695123	-0.731717	-0.349339	0.433709	-0.716955	-0.329305	0.417729	-0.591433	-0.410126	0.266835	-0.728737	-0.409130	0.226828	-0.721210	-0.349307	0.231364	-0.732334	-0.357794	0.273791	-0.740161	-0.351835	0.068114	-0.719887	-0.336940	0.086720	-0.639731	-0.406115	0.035836	-0.670508	-0.260232	0.033765	-0.745914	-0.216628	0.047591	-0.678695	-0.188403	0.035963	-0.679471	
5	0.0250	-0.361081	1.352956	-0.544591	-0.289976	1.321344	-0.702334	-0.286203	1.306181	-0.387055	-0.247544	1.275441	-0.546010	-0.239232	0.855015	-0.435289	-0.257920	0.861634	-0.666930	-0.302052	0.925243	-0.401063	-0.331943	0.906009	-0.693618	-0.407661	0.896989	-0.485170	-0.418238	0.892362	-0.567967	-0.416027	0.895052	-0.531308	-0.350007	0.689218	-0.355219	-0.336583	0.630798	-0.352588	-0.273111	0.641243	-0.353775	-0.278045	0.702484	-0.357327	-0.328737	0.447386	-0.363968	-0.337787	0.419005	-0.495535	-0.388174	0.311288	-0.334330	-0.389317	0.269778	-0.344465	-0.328879	0.271795	-0.340491	-0.331818	0.310776	-0.334829	-0.338806	0.067745	-0.357962	-0.329485	0.079045	-0.440350	-0.395096	0.038632	-0.394135	-0.231825	0.033384	-0.340148	-0.200218	0.044175	-0.414867	-0.175585	0.035616	-0.413190	-0.373756	0.681490	-0.722850	-0.355927	0.622701	-0.726479	-0.292834	0.635789	-0.733389	-0.303042	0.695109	-0.731866	-0.349398	0.433701	-0.717021	-0.329385	0.417820	-0.591402	-0.410190	0.266833	-0.728826	-0.409205	0.226705	-0.721330	-0.349314	0.231322	-0.732396	-0.357847	0.273778	-0.740162	-0.351803	0.068132	-0.720026	-0.336911	0.086702	-0.639672	-0.406157	0.035929	-0.670638	-0.260173	0.033765	-0.745907	-0.216596	0.047561	-0.678733	-0.188423	0.035932	-0.679486	
6	0.0300	-0.361063	1.352954	-0.544679	-0.289912	1.321361	-0.702368	-0.286155	1.306191	-0.387078	-0.247538	1.275426	-0.546174	-0.239310	0.855002	-0.435422	-0.258032	0.861664	-0.666957	-0.302326	0.925231	-0.400700	-0.332051	0.906020	-0.693601	-0.407746	0.897050	-0.485195	-0.418401	0.892334	-0.567745	-0.416159	0.895086	-0.531160	-0.350116	0.689185	-0.355240	-0.336747	0.630787	-0.352374	-0.273170	0.641214	-0.353801	-0.278135	0.702477	-0.357354	-0.328794	0.447442	-0.364035	-0.338019	0.418882	-0.495402	-0.388226	0.311297	-0.334361	-0.389352	0.269812	-0.344470	-0.328919	0.271789	-0.340507	-0.331853	0.310753	-0.334855	-0.338629	0.067776	-0.357884	-0.329508	0.079057	-0.440369	-0.395042	0.038572	-0.394080	-0.231841	0.033391	-0.340088	-0.200265	0.044158	-0.414844	-0.175625	0.035617	-0.413142	-0.373895	0.681535	-0.722879	-0.356202	0.622543	-0.726392	-0.292942	0.635810	-0.733372	-0.303262	0.695016	-0.731710	-0.349519	0.433605	-0.716977	-0.329469	0.417789	-0.591452	-0.410206	0.266834	-0.728836	-0.409238	0.226767	-0.721264	-0.349319	0.231335	-0.732400	-0.357869	0.273758	-0.740170	-0.351812	0.068069	-0.719989	-0.336906	0.086713	-0.639741	-0.406162	0.035838	-0.670578	-0.260205	0.033742	-0.745964	-0.216614	0.047572	-0.678750	-0.188415	0.035933	-0.679509	
7	0.0350	-0.361036	1.352948	-0.544746	-0.289856	1.321392	-0.702454	-0.286115	1.306208	-0.387147	-0.247482	1.275448	-0.546261	-0.239300	0.855036	-0.435608	-0.258134	0.861656	-0.667008	-0.302382	0.925261	-0.400744	-0.332188	0.905942	-0.693552	-0.407836	0.897102	-0.485212	-0.418513	0.892358	-0.567714	-0.416271	0.895105	-0.531177	-0.350196	0.689141	-0.355290	-0.336820	0.630799	-0.352353	-0.273240	0.641223	-0.353826	-0.278218	0.702476	-0.357393	-0.328837	0.447436	-0.363990	-0.338112	0.418884	-0.495398	-0.388296	0.311294	-0.334368	-0.389384	0.269816	-0.344479	-0.328933	0.271787	-0.340518	-0.332021	0.310964	-0.334771	-0.338623	0.067754	-0.357892	-0.329503	0.079029	-0.440345	-0.395062	0.038570	-0.394064	-0.231860	0.033370	-0.340092	-0.200298	0.044162	-0.414837	-0.175638	0.035626	-0.413156	-0.374013	0.681540	-0.722894	-0.356320	0.622550	-0.726432	-0.293051	0.635813	-0.733390	-0.303389	0.694996	-0.731716	-0.349595	0.433607	-0.716998	-0.329558	0.417806	-0.591473	-0.410208	0.266814	-0.728886	-0.409253	0.226747	-0.721281	-0.349344	0.231340	-0.732407	-0.357883	0.273743	-0.740166	-0.351798	0.068087	-0.720010	-0.336851	0.086749	-0.639790	-0.406169	0.035836	-0.670616	-0.260212	0.033729	-0.745973	-0.216624	0.047565	-0.678762	-0.188433	0.035943	-0.679524	
